<?xml version="1.0" encoding="UTF-8"?>
<svg xmlns="http://www.w3.org/2000/svg" width="512" height="512" viewBox="0 0 512 512" role="img" aria-labelledby="title desc">
  <title id="title">Vidtube Logo</title>
  <desc id="desc">Red rounded-square icon with a white play button and a stylized bird representing video + tweets.</desc>

  <!-- Background rounded square with red gradient -->
  <defs>
    <linearGradient id="g" x1="0" x2="1" y1="0" y2="1">
      <stop offset="0" stop-color="#ff3b30"/>
      <stop offset="1" stop-color="#c0122a"/>
    </linearGradient>

    <!-- subtle inner shadow -->
    <filter id="shadow" x="-50%" y="-50%" width="200%" height="200%">
      <feDropShadow dx="0" dy="6" stdDeviation="12" flood-color="#000" flood-opacity="0.12"/>
    </filter>
  </defs>

  <!-- background -->
  <rect x="24" y="24" width="464" height="464" rx="88" fill="url(#g)" filter="url(#shadow)"/>

  <!-- white play triangle (video) -->
  <g transform="translate(140,124) scale(0.9)">
    <path d="M86 36.5C92.1 40 96 46.9 96 54.7V213.3C96 221.1 92.1 228 86 231.5C78.9 235 69.7 232.6 63.9 226.8L13.8 176.7C8.0 170.9 8.0 160.1 13.8 154.3L63.9 104.2C69.7 98.4 78.9 96 86 99.5Z" fill="#ffffff"/>
  </g>

  <!-- stylized bird / tweet mark (overlapping top-right of play) -->
  <g transform="translate(300,120) scale(0.82)">
    <path d="M58.9 11.7c-2.1 0.9-4.3 1.5-6.6 1.8 2.4-1.4 4.3-3.6 5.2-6.3-2.3 1.4-4.9 2.4-7.6 3-2.2-2.3-5.3-3.7-8.8-3.7-6.7 0-12.1 5.4-12.1 12.1 0 0.95 0.11 1.88 0.31 2.77-10.05-0.5-18.96-5.32-24.94-12.62-1.04 1.79-1.63 3.86-1.63 6.08 0 4.19 2.13 7.9 5.36 10.07-1.98-0.062-3.84-0.61-5.46-1.51v0.15c0 5.85 4.17 10.74 9.71 11.85-1.02 0.28-2.09 0.43-3.2 0.43-0.78 0-1.54-0.075-2.28-0.21 1.55 4.79 6.05 8.28 11.39 8.38-4.18 3.27-9.46 5.22-15.19 5.22-0.99 0-1.97-0.058-2.93-0.17 5.42 3.47 11.86 5.49 18.77 5.49 22.52 0 34.86-18.66 34.86-34.86 0-0.53-0.012-1.06-0.036-1.58 2.4-1.72 4.48-3.86 6.13-6.31-2.19 0.97-4.55 1.62-7.02 1.91z" fill="#fff"/>
  </g>

  <!-- subtle highlight near top-left to add depth -->
  <ellipse cx="148" cy="90" rx="56" ry="20" fill="#ffffff" opacity="0.06"/>

</svg>
